# xmcd
#
# Track frame offsets:
# 150
# 21064
# 38551
# 51311
# 72015
# 90317
# 119111
# 136410
# 153703
# 162531
# 171402
# 191532
#
# Disc length: 2681 seconds
#
#
# Revision: 0
# Processed by: cddbd v1.4PL0 Copyright (c) Steve Scherf et al.
# Submitted via: FreeRIP 2.00 
#
DISCID=a50a770c
DTITLE=Johnny Cash - Ride This Train
DYEAR=1900
DGENRE=Country
TTITLE0=Loading Coal
TTITLE1=Slow Rider
TTITLE2=Lumberjack
TTITLE3=Doraine Of Ponchartrain
TTITLE4=Going To Memphis
TTITLE5=When Papa Played The Dobro
TTITLE6=Boss Jack
TTITLE7=Old Doc Brown
TTITLE8=The Fable Of Willie Brown
TTITLE9=Second Honeymoon
TTITLE10=The Ballad Of The Harp Weaver
TTITLE11=Smiling Bill McCall
EXTD=
EXTT0=
EXTT1=
EXTT2=
EXTT3=
EXTT4=
EXTT5=
EXTT6=
EXTT7=
EXTT8=
EXTT9=
EXTT10=
EXTT11=
PLAYORDER=
